<svg width="40" height="40" viewBox="0 0 40 40" fill="none" xmlns="http://www.w3.org/2000/svg">
<path d="M27.3787 16.2512L26.7656 17.7397H27.998L27.3787 16.2512Z" fill="#B6B8B8"/>
<path d="M6.19008 16.2512L5.58398 17.7397H6.80105L6.19008 16.2512Z" fill="#B6B8B8"/>
<path d="M20.2569 16.4621C20.1512 16.4022 19.9883 16.3946 19.8338 16.3946H18.7344V17.2233H19.8192C19.9911 17.2233 20.1358 17.2206 20.2604 17.1468C20.3752 17.0863 20.4441 16.9547 20.4441 16.7919C20.4441 16.6319 20.3724 16.5163 20.2569 16.4621Z" fill="#B6B8B8"/>
<path d="M24.082 22.8849C23.9734 22.8202 23.8134 22.8174 23.6561 22.8174H22.5566V23.6559H23.6415C23.8155 23.6559 23.9637 23.6504 24.0841 23.5801C24.1996 23.5091 24.2685 23.3818 24.2685 23.221C24.2664 23.0603 24.1975 22.9448 24.082 22.8849Z" fill="#B6B8B8"/>
<path d="M19.7358 22.816H18.5723V23.7672H19.7246C20.0677 23.7672 20.2813 23.5974 20.2813 23.2752C20.2806 22.9468 20.0586 22.816 19.7358 22.816Z" fill="#B6B8B8"/>
<path d="M36.2224 23.3769C36.2162 23.3707 36.2092 23.3637 36.2029 23.3588C36.372 23.2489 36.4848 23.0582 36.4848 22.8411V22.0457C36.4848 21.7041 36.2085 21.4285 35.8675 21.4285H34.0792C33.5218 21.4285 33.1015 21.5927 32.7953 21.8404C32.7097 21.6011 32.4898 21.4285 32.2205 21.4285H30.4321C29.9401 21.4285 29.5525 21.5503 29.2575 21.7507C29.1503 21.5593 28.9576 21.4285 28.7266 21.4285H25.7482C25.5082 21.4285 25.3057 21.5684 25.2034 21.7681C25.1609 21.7382 25.1296 21.7034 25.0851 21.6769C24.653 21.4459 24.1937 21.4285 23.7205 21.4285H21.6586C21.4186 21.4285 21.2154 21.5698 21.1138 21.7709C20.7999 21.567 20.3608 21.4285 19.7367 21.4285H16.885C16.7131 21.4285 16.5496 21.4981 16.432 21.6247L15.7563 22.3533L15.1078 21.6331C14.9915 21.5002 14.8252 21.4278 14.6492 21.4278H11.0599C10.7189 21.4278 10.4434 21.7041 10.4434 22.045V25.7797C10.4434 26.1214 10.7196 26.397 11.0599 26.397H14.5956C14.7675 26.397 14.931 26.3253 15.0479 26.1987L15.7292 25.4617L16.3756 26.1889C16.4925 26.3211 16.6609 26.3956 16.837 26.3956H18.5718C18.9134 26.3956 19.189 26.1193 19.189 25.7797V25.1423H19.6852C20.2885 25.1423 20.7248 25.0185 21.0421 24.8299V25.7797C21.0421 26.12 21.3184 26.3956 21.6593 26.3956H22.5563C22.898 26.3956 23.1735 26.1193 23.1735 25.7797V25.031H23.5096C23.5918 25.031 23.6495 25.0338 23.6913 25.0366C23.694 25.1034 23.694 25.1834 23.6927 25.2363V25.7797C23.6927 26.12 23.9703 26.3956 24.3099 26.3956H25.2055C25.3057 26.3956 25.3961 26.3684 25.4782 26.326C25.5618 26.3671 25.6515 26.3956 25.7503 26.3956H28.7293C28.8261 26.3956 28.9158 26.3684 28.9972 26.3288C29.0787 26.3684 29.1663 26.3956 29.2652 26.3956H31.0034C31.5566 26.3956 32.0076 26.2599 32.3451 26.0205C32.4376 26.2404 32.6561 26.3956 32.9115 26.3956H34.6498C35.9142 26.3956 36.6678 25.7241 36.6678 24.6003C36.6678 24.0797 36.5272 23.6921 36.2224 23.3769ZM19.6859 24.5251H18.5725V25.7784H16.8377L15.7382 24.5425L14.5956 25.7784H11.0599V22.0429H14.6492L15.7486 23.2677L16.8843 22.0429H19.736C20.4437 22.0429 21.2404 22.2413 21.2404 23.2753C21.2404 24.3115 20.4666 24.5272 19.6859 24.5251ZM24.6216 24.0443C24.8193 24.1166 24.9814 24.2481 25.0566 24.3581C25.1839 24.5404 25.2006 24.7102 25.2048 25.0393V25.7797H24.3092V25.3121C24.3092 25.0881 24.3308 24.7547 24.1638 24.5808C24.0357 24.4479 23.8374 24.4165 23.5103 24.4165H22.557V25.7797H21.66V22.045H23.7219C24.1728 22.045 24.5013 22.0638 24.7956 22.2204C25.0767 22.3902 25.2542 22.624 25.2542 23.0492C25.2542 23.6462 24.8554 23.9503 24.6216 24.0443ZM28.7279 22.8167H26.6376V23.4966H28.6765V24.2593H26.6376V25.0011L28.7279 25.0052V25.7797H25.7496V22.045H28.7279V22.8167ZM31.0041 25.7756H29.2659V24.9732H30.9965C31.1649 24.9732 31.2853 24.9524 31.3604 24.8807C31.4216 24.8236 31.4648 24.738 31.4648 24.6364C31.4648 24.5279 31.4189 24.4423 31.3562 24.3901C31.2866 24.333 31.1948 24.3073 31.0382 24.3073C30.2046 24.2802 29.1587 24.333 29.1587 23.1522C29.1587 22.6087 29.4983 22.0402 30.4349 22.0402H32.2233V22.8348H30.5859C30.4224 22.8348 30.3173 22.8418 30.2282 22.903C30.1301 22.9643 30.0932 23.054 30.0932 23.1723C30.0932 23.3136 30.176 23.4075 30.2881 23.4507C30.3834 23.4834 30.4836 23.4931 30.636 23.4931L31.1155 23.507C31.5991 23.5203 31.9324 23.6038 32.1335 23.8077C32.3089 23.9879 32.4014 24.2161 32.4014 24.5996C32.4014 25.4047 31.9011 25.7797 31.0041 25.7756ZM34.6512 25.7756H32.9129V24.9732H34.6442C34.8126 24.9732 34.933 24.9524 35.0074 24.8807C35.0687 24.8236 35.1118 24.738 35.1118 24.6364C35.1118 24.5279 35.0659 24.4423 35.0033 24.3901C34.9344 24.333 34.8425 24.3073 34.6853 24.3073C33.8509 24.2802 32.8057 24.333 32.8057 23.1522C32.8057 22.6087 33.1453 22.0402 34.0819 22.0402H35.8703V22.8348H34.2336C34.0694 22.8348 33.9636 22.8418 33.8753 22.903C33.7772 22.9643 33.741 23.054 33.741 23.1723C33.741 23.3136 33.8245 23.4075 33.9351 23.4507C34.0311 23.4834 34.1307 23.4931 34.283 23.4931L34.7625 23.507C35.2468 23.5203 35.5808 23.6038 35.7819 23.8077C35.9559 23.9879 36.0499 24.2161 36.0499 24.5996C36.0499 25.4047 35.5481 25.7797 34.6512 25.7756Z" fill="#B6B8B8"/>
<path d="M33.4204 15H32.5067C32.1651 15 31.8895 15.2763 31.8895 15.6165V16.002L31.4657 15.2985C31.353 15.1141 31.1533 15.0007 30.9382 15.0007H29.5778C29.2368 15.0007 28.9613 15.277 28.9613 15.6172V16.1412L28.6335 15.3744C28.5368 15.1482 28.3141 15.0007 28.0678 15.0007H26.7303C26.5946 15.0007 26.4652 15.0452 26.3622 15.1232C26.2599 15.0459 26.1312 15.0007 25.9927 15.0007H25.1305C24.3971 15.0007 23.8543 15.1781 23.4549 15.5247C23.409 15.2303 23.1647 15.0007 22.8571 15.0007H21.9456C21.702 15.0007 21.4981 15.1447 21.3965 15.3479C21.3582 15.3201 21.329 15.2867 21.2859 15.2616C20.867 15.0195 20.4265 15.0007 19.8955 15.0007H17.8427C17.7272 15.0007 17.6263 15.0411 17.5331 15.096C17.4419 15.0411 17.3396 15.0007 17.2241 15.0007H14.243C14.1171 15.0007 14.0078 15.0473 13.9104 15.1113C13.8123 15.0473 13.703 15.0007 13.5778 15.0007H12.09C11.8437 15.0007 11.6203 15.1489 11.5236 15.3772L10.9933 16.6269L10.4095 15.3591C10.3079 15.1406 10.0887 15.0007 9.84932 15.0007H8.39217C8.0512 15.0007 7.77563 15.277 7.77563 15.6172V16.1537L7.44092 15.373C7.3435 15.1468 7.12082 15 6.87379 15H5.54886C5.30183 15 5.07915 15.1475 4.98173 15.3737L3.38402 19.1084C3.30191 19.2998 3.32209 19.5169 3.43551 19.6908C3.54964 19.8634 3.74309 19.9678 3.95046 19.9678H4.92049C5.16822 19.9678 5.39299 19.8175 5.48832 19.5878L5.6769 19.1341H6.71096L6.89675 19.5851C6.99139 19.8161 7.21685 19.9671 7.46736 19.9671H9.28288C9.62385 19.9671 9.89942 19.6908 9.89942 19.3506V19.3359L10.0163 19.6011C10.1151 19.8237 10.3364 19.9678 10.58 19.9678L11.3642 19.9692C11.6092 19.9692 11.8291 19.8251 11.9279 19.6018L12.0462 19.3373V19.3526C12.0462 19.6929 12.3217 19.9685 12.6627 19.9685H13.5778C13.703 19.9685 13.8123 19.9212 13.9104 19.8578C14.0078 19.9212 14.1171 19.9685 14.243 19.9685H17.2241C17.3396 19.9685 17.4419 19.9281 17.5331 19.8732C17.6256 19.9281 17.7272 19.9685 17.8427 19.9685H18.7362C19.0772 19.9685 19.3528 19.6922 19.3528 19.3519V18.6102H19.6937C19.771 18.6102 19.826 18.6122 19.867 18.615C19.8712 18.6783 19.8698 18.7535 19.8698 18.8036L19.8684 18.8857L19.8719 19.3568C19.8747 19.695 20.1509 19.9685 20.4891 19.9685H21.3896C21.4905 19.9685 21.5816 19.9372 21.6658 19.894C21.7514 19.9379 21.8433 19.9685 21.9449 19.9685H22.8565C23.1557 19.9685 23.3923 19.7528 23.45 19.4716C23.9559 19.8968 24.6685 19.9685 25.0651 19.9685H26.111C26.3601 19.9685 26.5856 19.8154 26.6795 19.5823L26.8612 19.1348H27.8897L28.0782 19.5885C28.1736 19.8175 28.3976 19.9678 28.6474 19.9678H30.4637C30.8046 19.9678 31.0802 19.6915 31.0802 19.3513V18.7619L31.6278 19.67C31.7399 19.8544 31.9396 19.9678 32.1567 19.9678H33.4204C33.7614 19.9678 34.0369 19.6915 34.0369 19.3513V15.6165C34.0369 15.2763 33.76 15 33.4204 15ZM13.5771 19.3506H12.662L12.6585 16.4258L11.3642 19.3506H10.58L9.28358 16.423V19.3506H7.46667L7.12361 18.5176H5.26564L4.9191 19.3506H3.94906L5.54747 15.6158H6.8724L8.39148 19.1522V15.6158H9.84862L11.017 18.1495L12.0893 15.6158H13.5771V19.3506ZM17.2234 16.3938H15.1344V17.0667H17.174V17.8322H15.1344V18.5781H17.2234V19.3506H14.2423V15.6158H17.2234V16.3938ZM20.7981 17.6178C20.9936 17.693 21.1606 17.8238 21.24 17.9324C21.3666 18.1182 21.3882 18.2838 21.3882 18.6171V19.3499H20.4877L20.4835 18.8788C20.4835 18.6547 20.5051 18.3318 20.343 18.1516C20.2129 18.0208 20.0138 17.9922 19.6923 17.9922H18.7355V19.3506H17.842H17.8413V15.6165H19.8941C20.3506 15.6165 20.6867 15.6284 20.9748 15.7954C21.2573 15.9624 21.4264 16.2059 21.4264 16.6228C21.4264 17.2177 21.0291 17.526 20.7981 17.6178ZM22.8571 19.3506H21.9456V15.6158H22.8571V19.3506ZM33.4204 19.3506H32.156L30.463 16.5476V19.3506H28.6468L28.2988 18.5176H26.4436L26.1082 19.3506H25.063C24.6295 19.3506 24.0819 19.2545 23.7715 18.9379C23.4556 18.6206 23.2928 18.1905 23.2928 17.5121C23.2928 16.9582 23.3909 16.4516 23.7708 16.0508C24.0582 15.7529 24.5098 15.6158 25.1264 15.6158H25.9885V16.4161H25.1431C24.8181 16.4161 24.6337 16.4641 24.4569 16.6374C24.3045 16.7946 24.2009 17.0918 24.2009 17.4835C24.2009 17.883 24.2802 18.1711 24.4472 18.3596C24.5857 18.5079 24.8362 18.5524 25.0693 18.5524H25.4694L26.7303 15.6158H28.0678L29.5778 19.1481V15.6158H30.9382L32.5067 18.217V15.6158H33.4204V19.3506ZM25.4541 17.0333L25.0665 17.9373C24.9809 17.9373 24.9232 17.9275 24.8912 17.9192C24.8612 17.8635 24.8202 17.7403 24.8202 17.4842C24.8202 17.2254 24.8828 17.0911 24.8912 17.0792C24.9169 17.0542 24.9385 17.0326 25.1479 17.0326L25.4541 17.0333Z" fill="#B6B8B8"/>
<path d="M16.3125 23.9182L17.6834 25.4408V22.4465L16.3125 23.9182Z" fill="#B6B8B8"/>
<path d="M14.1877 22.8174H11.9512V23.4959H13.91V24.2586H11.9512V25.0017H14.1445L15.164 23.9044L14.1877 22.8174Z" fill="#B6B8B8"/>
</svg>
