<svg width="40" height="40" viewBox="0 0 40 40" fill="none" xmlns="http://www.w3.org/2000/svg">
<path d="M26.6903 10C24.1154 10.0007 21.7682 10.9787 19.9993 12.5851C18.2289 10.9808 15.8832 10.0021 13.311 10.0021C13.2897 10.0021 13.2676 10.0021 13.247 10.0021C7.76943 10.0379 3.33398 14.5032 3.33398 19.9997C3.33398 25.5182 7.80385 29.9965 13.3103 29.9965C15.8825 29.9965 18.2283 29.0192 19.9979 27.4135C19.6283 27.079 19.2938 26.7086 18.9778 26.321H21.0379C20.7275 26.7024 20.3889 27.0597 20.0247 27.3921H20.0234C20.0151 27.4011 20.0062 27.4066 19.9979 27.4142C21.7689 29.0213 24.1174 30.0007 26.6937 30C32.2036 29.9979 36.6687 25.5202 36.6673 19.9997C36.6673 19.9976 36.6673 19.9962 36.6673 19.9948C36.668 14.4743 32.2002 9.99862 26.6903 10ZM19.0921 13.6176H20.9884C21.2678 13.957 21.5273 14.3142 21.7627 14.6881H18.3797C18.5979 14.3308 18.8374 13.9632 19.0921 13.6176ZM17.7905 15.7378H22.3381C22.4999 16.0841 22.6431 16.442 22.7683 16.809H17.2516C17.3066 16.7055 17.4993 16.2889 17.7905 15.7378ZM7.4067 22.5461L8.01172 18.7237L6.64681 22.5461H5.91514L5.82015 18.7237L5.17383 22.5461H4.14894L4.99831 17.4766H6.54838L6.60275 20.5873L7.64967 17.4766H9.3312L8.49353 22.5461H7.4067ZM11.0306 22.5378L11.0657 22.133C11.0492 22.135 10.7257 22.622 9.97615 22.622C9.58381 22.622 8.95057 22.4075 8.95057 21.475C8.95057 20.2893 9.91558 19.8962 10.8345 19.8962C10.979 19.8962 11.2908 19.9224 11.2908 19.9224C11.2908 19.9224 11.3259 19.85 11.3259 19.6541C11.3259 19.332 11.0368 19.2879 10.6411 19.2879C9.9438 19.2879 9.48332 19.4748 9.48332 19.4748L9.6375 18.5574C9.6375 18.5574 10.1964 18.3229 10.9239 18.3229C11.3005 18.3229 12.3832 18.3629 12.3832 19.6065L11.966 22.5378H11.0306ZM14.9836 21.2467C14.9836 22.6613 13.6159 22.6006 13.3771 22.6006C12.4857 22.6006 12.2104 22.4772 12.1849 22.4703L12.3267 21.5391C12.3281 21.5308 12.7741 21.7012 13.2704 21.7012C13.5567 21.7012 13.9284 21.6729 13.9284 21.3301C13.9284 20.817 12.5986 20.9398 12.5986 19.721C12.5986 18.6457 13.3957 18.3312 14.1817 18.3312C14.7888 18.3312 15.1619 18.4147 15.1619 18.4147L15.0276 19.3541C15.0276 19.3541 14.4515 19.3065 14.3022 19.3065C13.9243 19.3065 13.7185 19.3892 13.7185 19.6541C13.7178 20.1866 14.9836 19.9259 14.9836 21.2467ZM16.6259 21.6178C16.7202 21.6178 16.8269 21.5853 16.8998 21.5853L16.767 22.4896C16.6603 22.5192 16.3581 22.6268 15.9706 22.6296C15.4757 22.6337 15.124 22.3564 15.124 21.7274C15.124 21.3053 15.7276 17.827 15.751 17.8043H16.8131L16.705 18.4264H17.235L17.0994 19.4286H16.5371L16.2384 21.275C16.2157 21.4219 16.2563 21.6178 16.6259 21.6178ZM18.962 18.3091C20.128 18.3091 20.477 19.1644 20.477 19.8658C20.477 20.1466 20.3365 20.8363 20.3365 20.8363H18.178C18.178 20.8363 17.9784 21.6881 19.1189 21.6881C19.6537 21.6881 20.2471 21.426 20.2471 21.426L20.0598 22.4516C20.0598 22.4516 19.7171 22.6268 18.9379 22.6268C18.0934 22.6268 17.1029 22.2689 17.1029 20.7652C17.1036 19.4624 17.8937 18.3091 18.962 18.3091ZM21.7751 25.2912H18.2358C18.0204 24.9464 17.8194 24.5925 17.6466 24.2208H22.3567C22.1833 24.5905 21.9892 24.9478 21.7751 25.2912ZM21.5376 22.5537H20.4474L21.1102 18.4278H22.0993L22.0043 19.0258C22.0043 19.0258 22.3567 18.3753 22.8323 18.3753C22.9707 18.3753 23.0375 18.3891 23.0375 18.3891C22.8964 18.6774 22.7718 18.9416 22.6424 19.6238C21.9045 19.3617 21.8481 20.7915 21.5376 22.5537ZM25.6916 22.4896C25.6916 22.4896 25.1203 22.6358 24.7624 22.6358C23.4945 22.6358 22.8509 21.7591 22.8509 20.4314C22.8509 18.4291 24.0438 17.3628 25.2696 17.3628C25.8237 17.3628 26.4659 17.6235 26.4659 17.6235L26.2925 18.7512C26.2925 18.7512 25.8581 18.4471 25.3178 18.4471C24.5951 18.4471 23.9467 19.1382 23.9467 20.3942C23.9467 21.0129 24.2489 21.5895 25.0033 21.5895C25.3619 21.5895 25.8815 21.3281 25.8815 21.3281L25.6916 22.4896ZM28.2486 22.5399L28.2844 22.1323C28.2672 22.1344 27.9437 22.6213 27.1948 22.6213C26.8025 22.6213 26.1693 22.4068 26.1693 21.4743C26.1693 20.2886 27.1343 19.8955 28.0525 19.8955C28.197 19.8955 28.5095 19.9217 28.5095 19.9217C28.5095 19.9217 28.5453 19.85 28.5453 19.6541C28.5453 19.332 28.2562 19.2879 27.8597 19.2879C27.1625 19.2879 26.7027 19.4748 26.7027 19.4748L26.8569 18.5574C26.8569 18.5574 27.4158 18.3229 28.144 18.3229C28.5198 18.3229 29.6032 18.3629 29.6025 19.6065L29.1854 22.5378C29.1847 22.5399 28.2486 22.5399 28.2486 22.5399ZM30.456 22.5537H29.3658L30.0286 18.4278H31.0184L30.9234 19.0258C30.9234 19.0258 31.2765 18.3753 31.7521 18.3753C31.8905 18.3753 31.9565 18.3891 31.9565 18.3891C31.8161 18.6774 31.6902 18.9416 31.5615 19.6238C30.8229 19.3617 30.7665 20.7915 30.456 22.5537ZM33.711 22.5427L33.7572 22.1626C33.7572 22.1626 33.4047 22.6082 32.7674 22.6082C31.8843 22.6082 31.4513 21.7536 31.4513 20.8804C31.4513 19.5299 32.2622 18.3526 33.2354 18.3526C33.8618 18.354 34.2617 18.9078 34.2617 18.9078L34.4916 17.4835L35.5564 17.4815L34.7442 22.5427H33.711ZM35.8118 22.3999C35.7835 22.4509 35.7436 22.4903 35.6927 22.5206C35.6424 22.5489 35.5887 22.5634 35.5323 22.5634C35.4772 22.5634 35.4242 22.5489 35.3733 22.5206C35.3224 22.4903 35.2824 22.4509 35.2542 22.3999C35.2253 22.3482 35.2115 22.2958 35.2115 22.2399C35.2115 22.1833 35.226 22.1295 35.2542 22.0785C35.2824 22.0274 35.3244 21.9861 35.3747 21.9585C35.427 21.9302 35.4786 21.9157 35.5323 21.9157C35.5874 21.9157 35.6397 21.9302 35.6906 21.9585C35.7429 21.9868 35.7828 22.0261 35.8118 22.0785C35.8414 22.1302 35.8544 22.184 35.8544 22.2399C35.8544 22.2958 35.8407 22.3489 35.8118 22.3999Z" fill="#B6B8B8"/>
<path d="M35.7259 25.4505C35.719 25.4457 35.7128 25.4381 35.7018 25.434C35.6908 25.4298 35.6736 25.4278 35.6467 25.4278H35.582V25.531H35.6509C35.6832 25.531 35.7045 25.5283 35.7169 25.5166C35.7286 25.5069 35.7341 25.4952 35.7341 25.4787C35.7341 25.4677 35.7314 25.4601 35.7259 25.4505Z" fill="#B6B8B8"/>
<path d="M35.9492 25.3882C35.9196 25.3345 35.879 25.2966 35.8274 25.2684C35.7758 25.2402 35.7235 25.2257 35.6698 25.2257C35.6147 25.2257 35.5624 25.2402 35.5115 25.2684C35.4605 25.2966 35.4186 25.3359 35.3903 25.3882C35.3607 25.4391 35.3477 25.4928 35.3477 25.5479C35.3477 25.6029 35.3621 25.6573 35.3903 25.7076C35.4199 25.7585 35.4598 25.7998 35.5101 25.828C35.561 25.8562 35.6147 25.8707 35.6712 25.8707C35.7262 25.8707 35.7799 25.8562 35.8302 25.828C35.8804 25.7998 35.921 25.7585 35.9492 25.7076C35.9781 25.6573 35.9919 25.6036 35.9919 25.5479C35.9919 25.4921 35.9775 25.4384 35.9492 25.3882ZM35.751 25.7268L35.7207 25.6724C35.6966 25.6298 35.6767 25.6016 35.6615 25.5905C35.6519 25.5837 35.6367 25.5782 35.6175 25.5782H35.5851V25.7261H35.5287V25.3785H35.6484C35.6897 25.3785 35.7193 25.382 35.7359 25.3889C35.7544 25.3957 35.7703 25.4054 35.7799 25.4226C35.7909 25.4384 35.7957 25.4556 35.7957 25.4735C35.7957 25.499 35.7861 25.5203 35.7689 25.5403C35.751 25.5582 35.7262 25.5699 35.6966 25.572C35.709 25.5761 35.7187 25.583 35.7262 25.5905C35.7407 25.6043 35.7572 25.627 35.7778 25.6587L35.8205 25.7268H35.751Z" fill="#B6B8B8"/>
<path d="M10.9205 20.6873C10.142 20.6873 9.98438 21.0376 9.98438 21.3294C9.98438 21.4798 10.0704 21.7308 10.4001 21.7308C11.0396 21.7308 11.1724 20.8907 11.1517 20.7121C11.1215 20.7059 11.1022 20.6879 10.9205 20.6873Z" fill="#B6B8B8"/>
<path d="M18.9658 19.2616C18.3869 19.2616 18.2754 19.9203 18.2754 19.9898H19.4545C19.4545 19.9368 19.5653 19.2616 18.9658 19.2616Z" fill="#B6B8B8"/>
<path d="M33.4183 19.3768C32.951 19.3768 32.5813 19.9203 32.582 20.7459C32.582 21.2494 32.761 21.5722 33.1437 21.5722C33.7191 21.5722 33.9965 20.8197 33.9965 20.259C33.9965 19.6403 33.8003 19.3768 33.4183 19.3768Z" fill="#B6B8B8"/>
<path d="M35.7641 22.1058C35.74 22.0631 35.7063 22.0301 35.6636 22.006C35.6209 21.9819 35.5775 21.9702 35.5321 21.9702C35.4881 21.9702 35.4433 21.9826 35.4006 22.006C35.358 22.028 35.3242 22.0624 35.3002 22.1058C35.2761 22.1492 35.2637 22.1953 35.2637 22.24C35.2637 22.2861 35.2761 22.3316 35.2988 22.3736C35.3242 22.4162 35.3566 22.4486 35.3993 22.4741C35.4419 22.4975 35.486 22.5112 35.5321 22.5112C35.5782 22.5112 35.6237 22.4975 35.665 22.4741C35.7076 22.45 35.7407 22.4169 35.7654 22.3736C35.7895 22.3309 35.8006 22.2861 35.8006 22.24C35.8006 22.1946 35.7882 22.1492 35.7641 22.1058ZM35.6147 22.4169L35.5837 22.3632C35.5596 22.3199 35.5404 22.2923 35.5259 22.282C35.5142 22.2731 35.5004 22.2689 35.4805 22.2689H35.4488V22.4162H35.391V22.0693H35.5115C35.5521 22.0693 35.5824 22.0728 35.5996 22.0803C35.6168 22.0865 35.6319 22.0982 35.6436 22.1134C35.6553 22.1285 35.6595 22.1457 35.6595 22.1643C35.6595 22.1898 35.6498 22.2111 35.6319 22.2304C35.614 22.2504 35.5892 22.2586 35.5603 22.2621C35.5741 22.2676 35.583 22.2738 35.5899 22.28C35.6044 22.2944 35.6209 22.3151 35.6409 22.3481L35.6835 22.4169H35.6147Z" fill="#B6B8B8"/>
<path d="M28.1392 20.6873C27.3607 20.6873 27.2031 21.0376 27.2031 21.3294C27.2031 21.4798 27.2885 21.7308 27.6189 21.7308C28.2583 21.7308 28.3905 20.8907 28.3705 20.7121C28.3395 20.7059 28.3202 20.6879 28.1392 20.6873Z" fill="#B6B8B8"/>
<path d="M35.5917 22.1405C35.5862 22.1336 35.5786 22.1281 35.5683 22.1233C35.5566 22.1198 35.5394 22.1164 35.5119 22.1164V22.1171H35.4492V22.2217H35.5174C35.5497 22.2217 35.571 22.2176 35.5841 22.2073C35.5944 22.1969 35.6006 22.1838 35.6006 22.1687C35.6006 22.157 35.5979 22.1501 35.5917 22.1405Z" fill="#B6B8B8"/>
</svg>
