<svg width="40" height="40" viewBox="0 0 40 40" fill="none" xmlns="http://www.w3.org/2000/svg">
<path d="M9.30829 16.629C9.19918 16.3864 9.02659 16.1864 8.81235 16.0361C8.58884 15.8844 8.32499 15.7782 8.02346 15.7152C7.71663 15.6536 7.3622 15.6258 6.95155 15.6214L5.05571 15.6228C4.85865 15.6258 4.66556 15.7958 4.61928 16.0068L3.3437 22.1639C3.29741 22.3721 3.42107 22.5465 3.61812 22.5465H4.52604C4.72309 22.5465 4.91817 22.3772 4.96181 22.1639L5.27327 20.669C5.31492 20.4609 5.50934 20.2872 5.70838 20.2872H5.96825C7.07851 20.2857 7.93815 20.0344 8.55577 19.5309C9.1767 19.0268 9.48287 18.3606 9.48287 17.5355C9.4822 17.1742 9.42864 16.8708 9.30829 16.629ZM7.35029 18.6406C7.07587 18.8633 6.69432 18.9747 6.20234 18.9747H5.98015C5.78244 18.9747 5.66143 18.8018 5.70441 18.5907L5.97751 17.2834C6.01586 17.0738 6.2149 16.9001 6.40998 16.9016L6.70754 16.8994C7.05471 16.8994 7.31987 16.9661 7.49709 17.0951C7.67233 17.2226 7.76028 17.4256 7.75895 17.6945C7.76424 18.1034 7.62339 18.4178 7.35029 18.6406Z" fill="#B6B8B8"/>
<path d="M35.1895 16.1036L35.1326 16.1227L35.0566 16.1344L34.9633 16.1183L34.9157 16.067L34.8939 15.9864L34.8926 15.8655V15.4177H35.1961V15.2792H34.8926V15H34.7425V15.2792H34.6406V15.4177H34.7425V15.9387L34.8126 16.1967L35.0189 16.2788L35.1055 16.2707L35.1974 16.2509V16.1036H35.1895Z" fill="#B6B8B8"/>
<path d="M36.597 15.3503L36.3801 15.2514L36.2201 15.2873L36.0574 15.4089L35.9629 15.2924L35.8094 15.2521L35.662 15.288L35.5225 15.3877V15.2792H35.375V16.2575H35.5218V15.5269L35.6455 15.4419L35.7684 15.4082L35.869 15.428L35.9186 15.4844L35.9404 15.5782L35.9477 15.6991V16.2583H36.0951V15.6324L36.0925 15.5804L36.0898 15.5328L36.2155 15.4441L36.3398 15.4097L36.437 15.4294L36.4899 15.4859L36.5084 15.5804L36.5183 15.6999V16.259H36.6664V15.6236L36.597 15.3503Z" fill="#B6B8B8"/>
<path d="M13.686 17.5093C13.3435 17.2953 12.8026 17.1884 12.0633 17.1884C11.6976 17.1884 11.3333 17.2199 10.965 17.2829C10.6932 17.3291 10.6667 17.3378 10.4994 17.3782C10.1542 17.4617 10.1 17.8435 10.1 17.8435L9.98893 18.3499C9.92611 18.673 10.0941 18.6606 10.1642 18.6335C10.3149 18.5836 10.3989 18.5323 10.7071 18.4561C11.0013 18.3821 11.3115 18.3264 11.5574 18.3301C11.9205 18.3301 12.1982 18.3726 12.3834 18.4591C12.5659 18.547 12.6571 18.698 12.6571 18.9163L12.6413 19.0585L12.5103 19.1479C11.9952 19.1838 11.6229 19.2366 11.1713 19.3091C10.7295 19.3773 10.342 19.4967 10.02 19.6601C9.67416 19.8287 9.41759 20.0551 9.23839 20.3431C9.06514 20.6326 8.97852 20.9836 8.97852 21.3954C8.97852 21.7831 9.10416 22.1033 9.34816 22.351C9.59349 22.5943 9.91751 22.713 10.305 22.713C10.5503 22.7116 10.7401 22.6903 10.875 22.6544L11.3148 22.4866L11.687 22.258L12.0296 22.0073L12.0342 22.0147L11.9998 22.1759L11.9978 22.1825V22.184C11.9608 22.3803 12.0679 22.5416 12.2405 22.5606L12.2438 22.565H12.2597H12.956H13.0869L13.0988 22.5592C13.28 22.5357 13.45 22.3745 13.4897 22.1825L14.1516 19.0072L14.186 18.7485L14.2018 18.506C14.2045 18.056 14.0292 17.7226 13.686 17.5093ZM12.222 21.0796L12.0805 21.2863L11.7234 21.4907C11.5555 21.5662 11.3961 21.6043 11.2486 21.6043C11.0251 21.6043 10.8499 21.5684 10.7315 21.4951L10.5563 21.1177C10.5563 20.9133 10.5986 20.7513 10.6892 20.6267L11.0741 20.3365C11.2387 20.275 11.4397 20.2229 11.6725 20.187C11.8801 20.1585 12.2901 20.1064 12.3437 20.105L12.4065 20.2273C12.3939 20.297 12.2776 20.8363 12.222 21.0796Z" fill="#B6B8B8"/>
<path d="M30.1763 17.5136C29.8318 17.2996 29.2915 17.1919 28.5542 17.1919C28.1885 17.1919 27.8235 17.2234 27.4565 17.2886C27.1841 17.3326 27.157 17.3421 26.989 17.3817C26.6445 17.4645 26.5909 17.8477 26.5909 17.8477L26.4798 18.3534C26.4177 18.6765 26.5817 18.6619 26.6584 18.637C26.8098 18.5871 26.8911 18.538 27.1966 18.4589C27.4896 18.3856 27.8023 18.3314 28.049 18.3329C28.4107 18.3329 28.6884 18.3761 28.8729 18.4626C29.0568 18.5505 29.1467 18.7029 29.1467 18.9191L29.1328 19.0605L29.0032 19.1521C28.4828 19.1866 28.1098 19.2393 27.6628 19.3119C27.2224 19.38 26.8336 19.4988 26.5109 19.6629C26.1664 19.8322 25.9065 20.0586 25.7293 20.3474C25.5541 20.6368 25.4688 20.9871 25.4688 21.3953C25.4688 21.7859 25.5931 22.1061 25.8404 22.3523C26.087 22.5949 26.4077 22.7166 26.7952 22.7166C27.0393 22.7136 27.229 22.696 27.3646 22.6572L27.803 22.4916L28.1786 22.2629L28.5185 22.0094L28.5244 22.0174L28.4934 22.1801L28.4901 22.1831L28.4914 22.186C28.4504 22.3824 28.5582 22.5451 28.7327 22.5627L28.7341 22.5663H28.7499C28.8643 22.5663 29.2598 22.5663 29.4482 22.5663H29.5765L29.5904 22.5612C29.7696 22.537 29.9389 22.3758 29.9766 22.1816L30.6405 19.0107L30.6755 18.7506L30.6947 18.5073C30.6954 18.0588 30.5221 17.7268 30.1763 17.5136ZM28.7156 21.0838L28.5681 21.2927L28.2143 21.4957C28.0464 21.5704 27.8863 21.6093 27.7415 21.6093C27.5107 21.6093 27.3401 21.5726 27.2251 21.4993L27.0478 21.1234C27.0478 20.9182 27.0908 20.7577 27.1775 20.631C27.2654 20.5115 27.3996 20.4133 27.5663 20.3415C27.7289 20.2799 27.93 20.2301 28.1641 20.1927C28.3704 20.1642 28.779 20.1107 28.8319 20.1099L28.8961 20.2323C28.8868 20.3019 28.7698 20.8391 28.7156 21.0838Z" fill="#B6B8B8"/>
<path d="M25.7971 16.6518C25.6833 16.4078 25.5127 16.2107 25.2972 16.0568C25.0763 15.9044 24.8144 15.7974 24.5083 15.7358C24.2074 15.6765 23.8483 15.6442 23.4403 15.6435L21.5418 15.645C21.3441 15.6486 21.1543 15.8186 21.1087 16.0275L19.8318 22.1875C19.7855 22.3964 19.9125 22.5693 20.1056 22.5693L21.0148 22.5679C21.2079 22.5693 21.4056 22.3978 21.4512 22.1868L21.7587 20.6911C21.8037 20.483 21.9988 20.3079 22.1952 20.3093H22.455C23.5666 20.3093 24.4283 20.0558 25.0485 19.5538C25.6615 19.046 25.9716 18.3813 25.9716 17.5554C25.9683 17.1956 25.9121 16.8915 25.7971 16.6518ZM23.8391 18.6664C23.5653 18.8847 23.1831 18.9961 22.6938 18.9961H22.4676C22.2725 18.9983 22.1462 18.8224 22.1899 18.6129L22.465 17.3077C22.5053 17.0989 22.7024 16.9237 22.8988 16.9259L23.193 16.9237C23.5422 16.9259 23.804 16.9897 23.9826 17.1186C24.1604 17.2476 24.2444 17.4499 24.2464 17.7181C24.2484 18.127 24.1115 18.4421 23.8391 18.6664Z" fill="#B6B8B8"/>
<path d="M33.5819 16.0764C33.6235 15.8661 33.5045 15.6953 33.3094 15.6983H32.4961C32.3294 15.6983 32.1793 15.8353 32.1059 16.0039L32.061 16.0815L32.02 16.2809L30.8833 22.0071L30.8462 22.183L30.8475 22.1874C30.8099 22.3757 30.9143 22.5178 31.0757 22.545L31.0896 22.5662H31.934C32.0993 22.5662 32.2547 22.427 32.3255 22.2555L32.3691 22.1822L33.5845 16.0771L33.5819 16.0764Z" fill="#B6B8B8"/>
<path d="M19.8553 17.2651C19.6404 17.268 18.7668 17.2651 18.7668 17.2651C18.5711 17.2651 18.3198 17.4402 18.1955 17.6491C18.1955 17.6491 16.8955 20.1216 16.7692 20.37L16.6184 20.3678L16.2137 17.6659C16.1687 17.4534 15.9684 17.2717 15.7191 17.2717L14.9057 17.2732C14.71 17.2732 14.5896 17.4461 14.6339 17.6572C14.6339 17.6572 15.2516 21.5521 15.3752 22.4688C15.4327 22.9745 15.3679 23.0646 15.3679 23.0646L14.5638 24.6167C14.4448 24.8277 14.509 25 14.704 25L15.6443 24.9985C15.8401 24.9985 16.0973 24.8277 16.2137 24.616L19.8308 17.836C19.8308 17.8367 20.1786 17.257 19.8553 17.2651Z" fill="#B6B8B8"/>
</svg>
