<svg width="40" height="40" viewBox="0 0 40 40" fill="none" xmlns="http://www.w3.org/2000/svg">
<path d="M16.6804 15.1707L14.9863 25.112H17.6957L19.3911 15.1707H16.6804Z" fill="#B6B8B8"/>
<path d="M12.7152 15.1819L10.0616 21.9616L9.77865 20.9379C9.25531 19.7045 7.76962 17.933 6.02539 16.8167L8.45184 25.1072L11.3187 25.1023L15.5855 15.1798L12.7152 15.1819Z" fill="#B6B8B8"/>
<path d="M8.74993 15.8933C8.59244 15.2878 8.13601 15.1073 7.56946 15.0857H3.36883L3.33398 15.2836C6.60293 16.0766 8.76596 17.9874 9.66351 20.2849L8.74993 15.8933Z" fill="#B6B8B8"/>
<path d="M24.8838 17.0766C25.7702 17.0627 26.4127 17.2564 26.9116 17.4571L27.1562 17.5721L27.5228 15.4174C26.9862 15.216 26.1451 15 25.0956 15C22.4183 15 20.5312 16.3484 20.5166 18.2808C20.4992 19.7086 21.8608 20.5058 22.8894 20.9818C23.9451 21.4696 24.2991 21.7797 24.2943 22.2152C24.2859 22.8807 23.4525 23.1859 22.6741 23.1859C21.5891 23.1859 21.0128 23.0361 20.1229 22.6654L19.7738 22.5065L19.3926 24.7316C20.0267 25.0096 21.1967 25.2486 22.4114 25.2612C25.2594 25.2612 27.1102 23.9288 27.1298 21.864C27.1416 20.7344 26.419 19.8724 24.8531 19.1651C23.9054 18.7038 23.3256 18.3972 23.3312 17.9317C23.3312 17.5184 23.8232 17.0766 24.8838 17.0766Z" fill="#B6B8B8"/>
<path d="M34.4752 15.1818H32.3819C31.7317 15.1818 31.2481 15.3588 30.9624 16.0069L26.9395 25.1176H29.7847C29.7847 25.1176 30.2488 23.8925 30.354 23.6242C30.6655 23.6242 33.4299 23.6284 33.8237 23.6284C33.9045 23.9754 34.154 25.1176 34.154 25.1176H36.6675L34.4752 15.1818ZM31.1338 21.5894C31.3568 21.0187 32.2132 18.811 32.2132 18.811C32.1986 18.8382 32.4341 18.2361 32.5742 17.8619L32.7568 18.7191C32.7568 18.7191 33.2759 21.0925 33.3847 21.5894H31.1338Z" fill="#B6B8B8"/>
</svg>
