<svg width="113" height="32" viewBox="0 0 113 32" fill="none" xmlns="http://www.w3.org/2000/svg">
<rect opacity="0.1" width="113" height="32" rx="4" fill="#182677"/>
<path fill-rule="evenodd" clip-rule="evenodd" d="M29.3337 13.9166H26.8337V12.25C26.8337 12.029 26.9215 11.817 27.0777 11.6607C27.234 11.5044 27.446 11.4166 27.667 11.4166H28.5003V9.33331H26.8337C26.1706 9.33331 25.5347 9.59671 25.0659 10.0655C24.5971 10.5344 24.3337 11.1703 24.3337 11.8333V13.9166H22.667V16H24.3337V22.6666H26.8337V16H28.5003L29.3337 13.9166Z" fill="#182677"/>
<path d="M40.2186 21V12.7324H45.0409V13.7754H41.3319V16.418H44.2733V17.4609H41.3319V21H40.2186ZM45.7379 18.1934C45.7379 17.6152 45.8687 17.1016 46.1305 16.6523C46.3922 16.2031 46.7379 15.8613 47.1676 15.627C47.5973 15.3926 48.0699 15.2754 48.5855 15.2754C48.9957 15.2754 49.3805 15.3594 49.7398 15.5273C50.1031 15.6914 50.3727 15.9277 50.5484 16.2363V15.3984H51.6324V21H50.5484V20.1387C50.3687 20.4473 50.0973 20.6875 49.734 20.8594C49.3746 21.0312 48.9918 21.1172 48.5855 21.1172C47.7965 21.1172 47.1246 20.8457 46.5699 20.3027C46.0152 19.7598 45.7379 19.0566 45.7379 18.1934ZM46.857 18.1816C46.857 18.7246 47.0328 19.1719 47.3844 19.5234C47.7359 19.875 48.1676 20.0508 48.6793 20.0508C49.1988 20.0508 49.6383 19.8828 49.9977 19.5469C50.357 19.2109 50.5367 18.7559 50.5367 18.1816C50.5367 17.7988 50.443 17.4648 50.2555 17.1797C50.068 16.8906 49.8355 16.6797 49.5582 16.5469C49.2848 16.4102 48.9918 16.3418 48.6793 16.3418C48.1637 16.3418 47.7301 16.5117 47.3785 16.8516C47.0309 17.1914 46.857 17.6348 46.857 18.1816ZM53.7357 19.7227C53.4623 19.2695 53.3255 18.7559 53.3255 18.1816C53.3255 17.6074 53.4623 17.0977 53.7357 16.6523C54.0091 16.2031 54.3685 15.8613 54.8138 15.627C55.263 15.3926 55.7552 15.2754 56.2904 15.2754C56.7162 15.2754 57.1166 15.3535 57.4916 15.5098C57.8666 15.666 58.1869 15.8887 58.4525 16.1777L57.6205 16.8691C57.2689 16.5176 56.8255 16.3418 56.2904 16.3418C55.767 16.3418 55.3216 16.5117 54.9545 16.8516C54.5873 17.1914 54.4037 17.6348 54.4037 18.1816C54.4037 18.7324 54.5873 19.1836 54.9545 19.5352C55.3255 19.8867 55.7709 20.0625 56.2904 20.0625C56.8216 20.0625 57.265 19.8789 57.6205 19.5117L58.4642 20.209C58.1986 20.498 57.8763 20.7227 57.4974 20.8828C57.1224 21.0391 56.7201 21.1172 56.2904 21.1172C55.7591 21.1172 55.2689 20.998 54.8197 20.7598C54.3705 20.5215 54.0091 20.1758 53.7357 19.7227ZM59.5538 18.1816C59.5538 17.3145 59.8273 16.6133 60.3741 16.0781C60.9249 15.543 61.6085 15.2754 62.4249 15.2754C63.2335 15.2754 63.8995 15.541 64.423 16.0723C64.9464 16.6035 65.2081 17.3066 65.2081 18.1816C65.2081 18.3887 65.2042 18.5312 65.1964 18.6094H60.6495C60.7159 19.0742 60.9152 19.4453 61.2472 19.7227C61.5792 20 61.9835 20.1387 62.4601 20.1387C62.7999 20.1387 63.1144 20.0625 63.4034 19.9102C63.6925 19.7578 63.9132 19.5449 64.0655 19.2715C64.1749 19.3145 64.3429 19.3809 64.5695 19.4707C64.796 19.5566 64.9405 19.6113 65.003 19.6348C64.7687 20.1113 64.4191 20.4785 63.9542 20.7363C63.4933 20.9902 62.9835 21.1172 62.4249 21.1172C61.6124 21.1172 60.9308 20.8457 60.38 20.3027C59.8292 19.7598 59.5538 19.0527 59.5538 18.1816ZM60.6495 17.7598H64.1241C64.0577 17.2949 63.8702 16.9297 63.5616 16.6641C63.257 16.3945 62.878 16.2598 62.4249 16.2598C61.9562 16.2598 61.5597 16.3945 61.2355 16.6641C60.9112 16.9297 60.7159 17.2949 60.6495 17.7598ZM66.8368 21V12.3457H67.9266V16.2363C68.1063 15.9277 68.3739 15.6914 68.7294 15.5273C69.0848 15.3594 69.4735 15.2754 69.8954 15.2754C70.4149 15.2754 70.8876 15.3926 71.3134 15.627C71.7391 15.8613 72.0809 16.2031 72.3387 16.6523C72.5966 17.1016 72.7255 17.6152 72.7255 18.1934C72.7255 18.7676 72.5946 19.2812 72.3329 19.7344C72.0712 20.1836 71.7255 20.5273 71.2958 20.7656C70.8661 21 70.3954 21.1172 69.8837 21.1172C69.4774 21.1172 69.0946 21.0312 68.7352 20.8594C68.3759 20.6875 68.1063 20.4473 67.9266 20.1387V21H66.8368ZM67.9384 18.1816C67.9384 18.7559 68.118 19.2109 68.4774 19.5469C68.8407 19.8828 69.2821 20.0508 69.8016 20.0508C70.3134 20.0508 70.743 19.875 71.0907 19.5234C71.4384 19.1719 71.6122 18.7246 71.6122 18.1816C71.6122 17.6348 71.4384 17.1914 71.0907 16.8516C70.747 16.5117 70.3173 16.3418 69.8016 16.3418C69.5712 16.3418 69.3466 16.3828 69.1278 16.4648C68.9091 16.543 68.7098 16.6582 68.5302 16.8105C68.3544 16.959 68.2118 17.1523 68.1024 17.3906C67.993 17.6289 67.9384 17.8926 67.9384 18.1816ZM74.4479 19.7227C74.1823 19.2695 74.0495 18.7559 74.0495 18.1816C74.0495 17.6074 74.1823 17.0977 74.4479 16.6523C74.7174 16.2031 75.0729 15.8613 75.5143 15.627C75.9557 15.3926 76.444 15.2754 76.9791 15.2754C77.5143 15.2754 78.0026 15.3926 78.444 15.627C78.8893 15.8613 79.2467 16.2031 79.5163 16.6523C79.7858 17.0977 79.9205 17.6074 79.9205 18.1816C79.9205 18.7559 79.7858 19.2695 79.5163 19.7227C79.2467 20.1758 78.8893 20.5215 78.444 20.7598C77.9987 20.998 77.5104 21.1172 76.9791 21.1172C76.4479 21.1172 75.9596 20.998 75.5143 20.7598C75.0729 20.5215 74.7174 20.1758 74.4479 19.7227ZM75.1276 18.1816C75.1276 18.7402 75.3053 19.1934 75.6608 19.541C76.0202 19.8887 76.4596 20.0625 76.9791 20.0625C77.4948 20.0625 77.9303 19.8887 78.2858 19.541C78.6452 19.1934 78.8248 18.7402 78.8248 18.1816C78.8248 17.6309 78.6471 17.1875 78.2916 16.8516C77.9362 16.5117 77.4987 16.3418 76.9791 16.3418C76.4596 16.3418 76.0202 16.5117 75.6608 16.8516C75.3053 17.1875 75.1276 17.6309 75.1276 18.1816ZM81.6371 19.7227C81.3715 19.2695 81.2387 18.7559 81.2387 18.1816C81.2387 17.6074 81.3715 17.0977 81.6371 16.6523C81.9066 16.2031 82.2621 15.8613 82.7035 15.627C83.1449 15.3926 83.6332 15.2754 84.1684 15.2754C84.7035 15.2754 85.1918 15.3926 85.6332 15.627C86.0785 15.8613 86.4359 16.2031 86.7055 16.6523C86.975 17.0977 87.1098 17.6074 87.1098 18.1816C87.1098 18.7559 86.975 19.2695 86.7055 19.7227C86.4359 20.1758 86.0785 20.5215 85.6332 20.7598C85.1879 20.998 84.6996 21.1172 84.1684 21.1172C83.6371 21.1172 83.1488 20.998 82.7035 20.7598C82.2621 20.5215 81.9066 20.1758 81.6371 19.7227ZM82.3168 18.1816C82.3168 18.7402 82.4945 19.1934 82.85 19.541C83.2094 19.8887 83.6488 20.0625 84.1684 20.0625C84.684 20.0625 85.1195 19.8887 85.475 19.541C85.8344 19.1934 86.0141 18.7402 86.0141 18.1816C86.0141 17.6309 85.8363 17.1875 85.4809 16.8516C85.1254 16.5117 84.6879 16.3418 84.1684 16.3418C83.6488 16.3418 83.2094 16.5117 82.85 16.8516C82.4945 17.1875 82.3168 17.6309 82.3168 18.1816ZM88.8029 21V12.3457H89.881V17.3496L91.8146 15.3984H93.3029L90.9005 17.8184L93.8771 21H92.4357L89.881 18.2637V21H88.8029Z" fill="#182677"/>
</svg>
