<svg width="113" height="32" viewBox="0 0 113 32" fill="none" xmlns="http://www.w3.org/2000/svg">
<rect opacity="0.1" width="113" height="32" rx="4" fill="#E04A39"/>
<path fill-rule="evenodd" clip-rule="evenodd" d="M27.8669 9.33331H30.8106C30.839 9.33331 30.8639 9.35344 30.8718 9.38292C30.8796 9.41242 30.8684 9.4441 30.8445 9.46044L30.0031 10.0319C29.993 10.0389 29.9812 10.0425 29.9692 10.0425H28.9924L28.9925 10.0426C29.3624 10.373 30.1316 11.0602 30.1316 12.3901C30.1316 13.7128 29.4131 14.3243 28.7791 14.8637L28.7583 14.8864C28.559 15.1006 28.3331 15.3437 28.3331 15.7115C28.3331 16.0858 28.5588 16.2878 28.7402 16.4502L28.7404 16.4504L29.3274 16.9438C30.0232 17.5766 30.6789 18.173 30.6785 19.3807C30.6785 21.0136 29.2271 22.6666 26.4532 22.6666C24.0677 22.6666 23 21.4177 23 20.1797C23 19.8687 23.0892 18.7961 24.2373 18.0586C25.2091 17.4132 26.5394 17.3146 27.2546 17.2616L27.2553 17.2616L27.3051 17.258L27.2771 17.2189L27.2771 17.2189C27.0542 16.9111 26.8235 16.5927 26.8235 16.0762C26.8235 15.8114 26.8892 15.6416 26.9587 15.4618L26.959 15.4609L26.983 15.3979C26.8204 15.4145 26.636 15.4328 26.4695 15.4328C24.7381 15.4328 23.8037 14.026 23.8037 12.702C23.8037 11.8428 24.1873 10.9724 24.83 10.3732C25.6472 9.64395 26.5552 9.33331 27.8669 9.33331ZM24.414 19.8151C24.414 21.0847 25.5501 21.938 27.2409 21.938C28.6976 21.938 29.6026 21.2184 29.6027 20.0598C29.6027 19.1501 29.034 18.6725 27.8509 17.7631C27.7229 17.7456 27.6423 17.7456 27.4821 17.7456C27.4727 17.7456 26.5267 17.7589 25.7938 18.0253C24.8787 18.3836 24.414 18.986 24.414 19.8151ZM25.217 11.8517C25.217 12.9305 25.8059 14.9454 27.225 14.9454C27.6084 14.9454 28.0473 14.7501 28.3171 14.4592C28.7184 14.0234 28.7184 13.3958 28.7184 13.1896C28.7184 11.882 27.998 9.99026 26.695 9.99026C26.2695 9.99026 25.828 10.2154 25.5701 10.5639C25.3325 10.8819 25.217 11.303 25.217 11.8517ZM33.3852 15.5605H34.9363C34.9716 15.5605 35.0001 15.5914 35.0001 15.6297V16.3597C35.0001 16.3978 34.9715 16.4285 34.9363 16.4285H33.3852V18.1092C33.3852 18.1471 33.3566 18.178 33.3215 18.178H32.6542C32.619 18.178 32.5904 18.1471 32.5904 18.1092V16.4287H31.0472C31.012 16.4287 30.9835 16.398 30.9835 16.3599V15.6297C30.9835 15.5914 31.012 15.5605 31.0472 15.5605H32.5904V13.8909C32.5904 13.8529 32.619 13.8222 32.6542 13.8222H33.3215C33.3566 13.8222 33.3852 13.8529 33.3852 13.8909V15.5605Z" fill="#E04A39"/>
<path d="M41.6307 16.8867C41.6307 16.1133 41.8143 15.4023 42.1815 14.7539C42.5487 14.1016 43.0526 13.5859 43.6932 13.207C44.3338 12.8281 45.0389 12.6387 45.8084 12.6387C46.3436 12.6387 46.8514 12.7344 47.3319 12.9258C47.8123 13.1172 48.2362 13.3848 48.6034 13.7285L47.8006 14.4727C47.2264 13.9609 46.5623 13.7051 45.8084 13.7051C45.242 13.7051 44.7245 13.8477 44.2557 14.1328C43.787 14.418 43.4178 14.8047 43.1483 15.293C42.8827 15.7773 42.7498 16.3086 42.7498 16.8867C42.7498 17.4648 42.8827 17.9961 43.1483 18.4805C43.4178 18.9648 43.787 19.3477 44.2557 19.6289C44.7245 19.9102 45.242 20.0508 45.8084 20.0508C46.5584 20.0508 47.1776 19.8477 47.6659 19.4414C48.1541 19.0352 48.4159 18.4941 48.451 17.8184H46.0955V16.8457H49.7225C49.7225 18.2598 49.3748 19.3262 48.6795 20.0449C47.9842 20.7598 47.0272 21.1172 45.8084 21.1172C45.2303 21.1172 44.6815 21.0059 44.162 20.7832C43.6463 20.5605 43.203 20.2598 42.8319 19.8809C42.4647 19.502 42.1717 19.0527 41.953 18.5332C41.7381 18.0098 41.6307 17.4609 41.6307 16.8867ZM51.2926 19.7227C51.027 19.2695 50.8941 18.7559 50.8941 18.1816C50.8941 17.6074 51.027 17.0977 51.2926 16.6523C51.5621 16.2031 51.9176 15.8613 52.359 15.627C52.8004 15.3926 53.2887 15.2754 53.8238 15.2754C54.359 15.2754 54.8473 15.3926 55.2887 15.627C55.734 15.8613 56.0914 16.2031 56.3609 16.6523C56.6305 17.0977 56.7652 17.6074 56.7652 18.1816C56.7652 18.7559 56.6305 19.2695 56.3609 19.7227C56.0914 20.1758 55.734 20.5215 55.2887 20.7598C54.8434 20.998 54.3551 21.1172 53.8238 21.1172C53.2926 21.1172 52.8043 20.998 52.359 20.7598C51.9176 20.5215 51.5621 20.1758 51.2926 19.7227ZM51.9723 18.1816C51.9723 18.7402 52.15 19.1934 52.5055 19.541C52.8648 19.8887 53.3043 20.0625 53.8238 20.0625C54.3395 20.0625 54.775 19.8887 55.1305 19.541C55.4898 19.1934 55.6695 18.7402 55.6695 18.1816C55.6695 17.6309 55.4918 17.1875 55.1363 16.8516C54.7809 16.5117 54.3434 16.3418 53.8238 16.3418C53.3043 16.3418 52.8648 16.5117 52.5055 16.8516C52.15 17.1875 51.9723 17.6309 51.9723 18.1816ZM58.4818 19.7227C58.2162 19.2695 58.0834 18.7559 58.0834 18.1816C58.0834 17.6074 58.2162 17.0977 58.4818 16.6523C58.7513 16.2031 59.1068 15.8613 59.5482 15.627C59.9896 15.3926 60.4779 15.2754 61.013 15.2754C61.5482 15.2754 62.0365 15.3926 62.4779 15.627C62.9232 15.8613 63.2806 16.2031 63.5502 16.6523C63.8197 17.0977 63.9545 17.6074 63.9545 18.1816C63.9545 18.7559 63.8197 19.2695 63.5502 19.7227C63.2806 20.1758 62.9232 20.5215 62.4779 20.7598C62.0326 20.998 61.5443 21.1172 61.013 21.1172C60.4818 21.1172 59.9935 20.998 59.5482 20.7598C59.1068 20.5215 58.7513 20.1758 58.4818 19.7227ZM59.1615 18.1816C59.1615 18.7402 59.3392 19.1934 59.6947 19.541C60.0541 19.8887 60.4935 20.0625 61.013 20.0625C61.5287 20.0625 61.9642 19.8887 62.3197 19.541C62.6791 19.1934 62.8587 18.7402 62.8587 18.1816C62.8587 17.6309 62.681 17.1875 62.3255 16.8516C61.9701 16.5117 61.5326 16.3418 61.013 16.3418C60.4935 16.3418 60.0541 16.5117 59.6947 16.8516C59.3392 17.1875 59.1615 17.6309 59.1615 18.1816ZM65.2726 18.2168C65.2726 17.6387 65.4034 17.123 65.6652 16.6699C65.9269 16.2168 66.2726 15.8711 66.7023 15.6328C67.132 15.3945 67.6046 15.2754 68.1202 15.2754C68.5265 15.2754 68.9093 15.3633 69.2687 15.5391C69.632 15.7148 69.9034 15.959 70.0831 16.2715V15.3984H71.1671V20.1504C71.1671 22.5801 70.1456 23.7949 68.1027 23.7949C67.5792 23.7949 67.0929 23.6641 66.6437 23.4023C66.1945 23.1406 65.837 22.7676 65.5714 22.2832C65.6261 22.2598 65.7843 22.1777 66.046 22.0371C66.3077 21.8965 66.4542 21.8184 66.4855 21.8027C66.6456 22.1035 66.8741 22.3379 67.171 22.5059C67.4718 22.6777 67.7823 22.7637 68.1027 22.7637C69.4308 22.7637 70.0948 21.916 70.0948 20.2207C70.0948 20.2051 70.0929 20.1836 70.089 20.1562C70.0851 20.125 70.0831 20.1016 70.0831 20.0859C69.923 20.4062 69.6573 20.6582 69.2862 20.8418C68.9152 21.0254 68.5265 21.1172 68.1202 21.1172C67.6046 21.1172 67.132 21.002 66.7023 20.7715C66.2726 20.5371 65.9269 20.1973 65.6652 19.752C65.4034 19.3027 65.2726 18.791 65.2726 18.2168ZM66.3917 18.2051C66.3917 18.7637 66.5655 19.2109 66.9132 19.5469C67.2609 19.8828 67.6945 20.0508 68.214 20.0508C68.4445 20.0508 68.6691 20.0098 68.8878 19.9277C69.1066 19.8457 69.3038 19.7285 69.4796 19.5762C69.6593 19.4238 69.8019 19.2285 69.9073 18.9902C70.0167 18.752 70.0714 18.4902 70.0714 18.2051C70.0714 17.627 69.8917 17.1719 69.5323 16.8398C69.1769 16.5078 68.7374 16.3418 68.214 16.3418C67.7023 16.3418 67.2706 16.5176 66.9191 16.8691C66.5675 17.2207 66.3917 17.666 66.3917 18.2051ZM73.2235 21V12.3457H74.3134V21H73.2235ZM76.0065 18.1816C76.0065 17.3145 76.2799 16.6133 76.8268 16.0781C77.3776 15.543 78.0612 15.2754 78.8776 15.2754C79.6862 15.2754 80.3522 15.541 80.8756 16.0723C81.3991 16.6035 81.6608 17.3066 81.6608 18.1816C81.6608 18.3887 81.6569 18.5312 81.6491 18.6094H77.1022C77.1686 19.0742 77.3678 19.4453 77.6998 19.7227C78.0319 20 78.4362 20.1387 78.9127 20.1387C79.2526 20.1387 79.567 20.0625 79.8561 19.9102C80.1452 19.7578 80.3659 19.5449 80.5182 19.2715C80.6276 19.3145 80.7955 19.3809 81.0221 19.4707C81.2487 19.5566 81.3932 19.6113 81.4557 19.6348C81.2213 20.1113 80.8717 20.4785 80.4069 20.7363C79.9459 20.9902 79.4362 21.1172 78.8776 21.1172C78.0651 21.1172 77.3834 20.8457 76.8327 20.3027C76.2819 19.7598 76.0065 19.0527 76.0065 18.1816ZM77.1022 17.7598H80.5768C80.5104 17.2949 80.3229 16.9297 80.0143 16.6641C79.7096 16.3945 79.3307 16.2598 78.8776 16.2598C78.4088 16.2598 78.0123 16.3945 77.6881 16.6641C77.3639 16.9297 77.1686 17.2949 77.1022 17.7598ZM86.383 18.3867V17.3379H88.3224V15.3984H89.3713V17.3379H91.3107V18.3867H89.3713V20.3379H88.3224V18.3867H86.383Z" fill="#E04A39"/>
</svg>
