<svg width="51" height="32" viewBox="0 0 51 32" fill="none" xmlns="http://www.w3.org/2000/svg">
<rect x="0.384766" width="50" height="32" rx="3" fill="#0F3560"/>
<path d="M28.2375 23.8647H19.9385V8.14087H28.2375V23.8647Z" fill="#FF5F00"/>
<path d="M20.47 16.0015C20.47 12.8118 21.8866 9.97057 24.0925 8.13955C22.4794 6.80063 20.4434 6.00147 18.2308 6.00147C12.9927 6.00147 8.74658 10.4785 8.74658 16.0015C8.74658 21.5244 12.9927 26.0015 18.2308 26.0015C20.4434 26.0015 22.4794 25.2023 24.0925 23.8634C21.8866 22.0324 20.47 19.1911 20.47 16.0015Z" fill="#EB001B"/>
<path d="M39.4301 16.0015C39.4301 21.5244 35.1839 26.0015 29.9458 26.0015C27.7332 26.0015 25.6973 25.2023 24.0835 23.8634C26.2901 22.0324 27.7067 19.1911 27.7067 16.0015C27.7067 12.8118 26.2901 9.97057 24.0835 8.13955C25.6973 6.80063 27.7332 6.00147 29.9458 6.00147C35.1839 6.00147 39.4301 10.4785 39.4301 16.0015Z" fill="#F79E1B"/>
<path d="M15.8861 16.0648C15.8861 15.628 16.1576 15.2692 16.6012 15.2692C17.0252 15.2692 17.3113 15.6126 17.3113 16.0648C17.3113 16.5171 17.0252 16.8605 16.6012 16.8605C16.1576 16.8605 15.8861 16.5016 15.8861 16.0648ZM17.7945 16.0648V14.8223H17.282V15.124C17.1194 14.9002 16.8727 14.7598 16.5375 14.7598C15.8765 14.7598 15.3583 15.3061 15.3583 16.0648C15.3583 16.8242 15.8765 17.3699 16.5375 17.3699C16.8727 17.3699 17.1194 17.2294 17.282 17.0057V17.3074H17.7945V16.0648ZM35.1148 16.0648C35.1148 15.628 35.3863 15.2692 35.83 15.2692C36.2545 15.2692 36.5401 15.6126 36.5401 16.0648C36.5401 16.5171 36.2545 16.8605 35.83 16.8605C35.3863 16.8605 35.1148 16.5016 35.1148 16.0648ZM37.0238 16.0648V13.8243H36.5107V15.124C36.3482 14.9002 36.1015 14.7598 35.7662 14.7598C35.1052 14.7598 34.587 15.3061 34.587 16.0648C34.587 16.8242 35.1052 17.3699 35.7662 17.3699C36.1015 17.3699 36.3482 17.2294 36.5107 17.0057V17.3074H37.0238V16.0648ZM24.1567 15.2436C24.4869 15.2436 24.6992 15.462 24.7533 15.8464H23.5301C23.5849 15.4876 23.7915 15.2436 24.1567 15.2436ZM24.1669 14.7598C23.4759 14.7598 22.9928 15.29 22.9928 16.0648C22.9928 16.8551 23.4957 17.3699 24.2013 17.3699C24.5563 17.3699 24.8815 17.2764 25.1677 17.0217L24.9165 16.6212C24.7189 16.7873 24.4672 16.8813 24.2306 16.8813C23.9004 16.8813 23.5996 16.72 23.5256 16.2725H25.276C25.2811 16.2053 25.2862 16.1374 25.2862 16.0648C25.2811 15.29 24.8273 14.7598 24.1669 14.7598ZM30.3557 16.0648C30.3557 15.628 30.6272 15.2692 31.0709 15.2692C31.4948 15.2692 31.781 15.6126 31.781 16.0648C31.781 16.5171 31.4948 16.8605 31.0709 16.8605C30.6272 16.8605 30.3557 16.5016 30.3557 16.0648ZM32.2642 16.0648V14.8223H31.7517V15.124C31.5885 14.9002 31.3424 14.7598 31.0071 14.7598C30.3461 14.7598 29.8279 15.3061 29.8279 16.0648C29.8279 16.8242 30.3461 17.3699 31.0071 17.3699C31.3424 17.3699 31.5885 17.2294 31.7517 17.0057V17.3074H32.2642V16.0648ZM27.4611 16.0648C27.4611 16.8188 27.959 17.3699 28.7188 17.3699C29.0738 17.3699 29.3103 17.2866 29.5666 17.0735L29.3205 16.6367C29.128 16.7825 28.9259 16.8605 28.7035 16.8605C28.2943 16.8551 27.9934 16.5433 27.9934 16.0648C27.9934 15.5864 28.2943 15.2746 28.7035 15.2692C28.9259 15.2692 29.128 15.3472 29.3205 15.493L29.5666 15.0562C29.3103 14.8431 29.0738 14.7598 28.7188 14.7598C27.959 14.7598 27.4611 15.3109 27.4611 16.0648ZM34.0694 14.7598C33.7736 14.7598 33.5811 14.9056 33.4479 15.124V14.8223H32.9399V17.3074H33.453V15.9143C33.453 15.5031 33.6206 15.2746 33.9559 15.2746C34.0598 15.2746 34.1682 15.29 34.2765 15.337L34.4346 14.8276C34.3211 14.7806 34.1732 14.7598 34.0694 14.7598ZM20.3296 15.0199C20.0829 14.8485 19.7431 14.7598 19.3683 14.7598C18.7711 14.7598 18.3867 15.0615 18.3867 15.5554C18.3867 15.9607 18.6728 16.2106 19.2001 16.2886L19.4422 16.3249C19.7233 16.3665 19.856 16.4445 19.856 16.5849C19.856 16.7772 19.6686 16.8867 19.3186 16.8867C18.9636 16.8867 18.7073 16.767 18.5346 16.6266L18.293 17.0473C18.5741 17.2657 18.9291 17.3699 19.3135 17.3699C19.9943 17.3699 20.3888 17.0319 20.3888 16.5588C20.3888 16.122 20.0784 15.8935 19.5653 15.8155L19.3237 15.7786C19.1018 15.7477 18.924 15.7012 18.924 15.5346C18.924 15.3525 19.0917 15.2436 19.3728 15.2436C19.6737 15.2436 19.9649 15.3632 20.1077 15.4567L20.3296 15.0199ZM26.9429 14.7598C26.6471 14.7598 26.4547 14.9056 26.322 15.124V14.8223H25.814V17.3074H26.3265V15.9143C26.3265 15.5031 26.4942 15.2746 26.8295 15.2746C26.9333 15.2746 27.0417 15.29 27.1501 15.337L27.3081 14.8276C27.1947 14.7806 27.0468 14.7598 26.9429 14.7598ZM22.5688 14.8223H21.7306V14.0683H21.2124V14.8223H20.7343V15.3162H21.2124V16.4499C21.2124 17.0265 21.4247 17.3699 22.0309 17.3699C22.2533 17.3699 22.5096 17.2973 22.6721 17.1777L22.5242 16.7147C22.3713 16.8081 22.2036 16.8551 22.0704 16.8551C21.8141 16.8551 21.7306 16.6885 21.7306 16.4391V15.3162H22.5688V14.8223ZM14.905 17.3074V15.7477C14.905 15.1603 14.5499 14.7652 13.9776 14.7598C13.6767 14.7544 13.3663 14.8532 13.1489 15.202C12.9864 14.9264 12.7301 14.7598 12.37 14.7598C12.1182 14.7598 11.8721 14.8378 11.6796 15.1288V14.8223H11.1665V17.3074H11.6841V15.9298C11.6841 15.4983 11.911 15.2692 12.2616 15.2692C12.602 15.2692 12.7741 15.5031 12.7741 15.9244V17.3074H13.2923V15.9298C13.2923 15.4983 13.5288 15.2692 13.8692 15.2692C14.2192 15.2692 14.3868 15.5031 14.3868 15.9244V17.3074H14.905Z" fill="white"/>
</svg>
