<svg width="51" height="32" viewBox="0 0 51 32" fill="none" xmlns="http://www.w3.org/2000/svg">
<rect x="0.192383" width="50" height="32" rx="3" fill="#082069"/>
<path d="M14.3008 20.9001H12.3347C12.2002 20.9001 12.0858 21.0032 12.0648 21.1432L11.2696 26.4581C11.2538 26.563 11.3309 26.6576 11.4318 26.6576H12.3704C12.5049 26.6576 12.6193 26.5545 12.6403 26.4142L12.8548 24.9807C12.8755 24.8404 12.9902 24.7373 13.1244 24.7373H13.7468C15.0419 24.7373 15.7893 24.0766 15.9845 22.7674C16.0725 22.1946 15.9883 21.7445 15.7338 21.4293C15.4544 21.0832 14.9588 20.9001 14.3008 20.9001ZM14.5276 22.8413C14.4201 23.585 13.8811 23.585 13.3599 23.585H13.0632L13.2713 22.1961C13.2837 22.1121 13.3527 22.0503 13.4332 22.0503H13.5692C13.9242 22.0503 14.2591 22.0503 14.4322 22.2637C14.5354 22.3909 14.567 22.5801 14.5276 22.8413Z" fill="white"/>
<path d="M20.1776 22.8167H19.2361C19.1559 22.8167 19.0866 22.8786 19.0743 22.9625L19.0326 23.2401L18.9667 23.1395C18.7629 22.8276 18.3084 22.7234 17.8548 22.7234C16.8144 22.7234 15.9258 23.5541 15.7528 24.7194C15.6628 25.3007 15.7907 25.8565 16.1035 26.2441C16.3904 26.6006 16.8009 26.7491 17.2893 26.7491C18.1276 26.7491 18.5925 26.1808 18.5925 26.1808L18.5505 26.4566C18.5347 26.5621 18.6117 26.6566 18.712 26.6566H19.5601C19.6949 26.6566 19.8088 26.5536 19.83 26.4133L20.3389 23.0162C20.355 22.9116 20.2782 22.8167 20.1776 22.8167ZM18.8653 24.7485C18.7744 25.3155 18.3475 25.6962 17.803 25.6962C17.5297 25.6962 17.3112 25.6038 17.1709 25.4286C17.0318 25.2546 16.9789 25.007 17.0231 24.7312C17.1079 24.169 17.542 23.7759 18.0782 23.7759C18.3455 23.7759 18.5628 23.8696 18.706 24.0463C18.8495 24.2248 18.9064 24.4739 18.8653 24.7485Z" fill="white"/>
<path d="M25.1917 22.8167H24.2456C24.1553 22.8167 24.0705 22.8639 24.0193 22.943L22.7145 24.9694L22.1614 23.0221C22.1266 22.9003 22.0199 22.8167 21.8992 22.8167H20.9695C20.8565 22.8167 20.778 22.933 20.814 23.0452L21.8561 26.2692L20.8764 27.7273C20.7993 27.8421 20.8769 28 21.01 28H21.955C22.0447 28 22.1286 27.954 22.1795 27.8764L25.3262 23.0879C25.4015 22.9733 25.3242 22.8167 25.1917 22.8167Z" fill="white"/>
<path d="M28.3242 20.8994H26.3579C26.2236 20.8994 26.1092 21.0025 26.0882 21.1425L25.2931 26.4574C25.2773 26.5623 25.3543 26.6568 25.4546 26.6568H26.4637C26.5574 26.6568 26.6376 26.5847 26.6523 26.4865L26.8779 24.9799C26.8986 24.8396 27.0133 24.7366 27.1476 24.7366H27.7697C29.065 24.7366 29.8122 24.0759 30.0077 22.7666C30.0959 22.1938 30.0111 21.7438 29.7567 21.4286C29.4776 21.0825 28.9823 20.8994 28.3242 20.8994ZM28.551 22.8406C28.4438 23.5843 27.9048 23.5843 27.3833 23.5843H27.0869L27.2953 22.1953C27.3077 22.1114 27.3761 22.0496 27.4569 22.0496H27.5929C27.9476 22.0496 28.2828 22.0496 28.4559 22.2629C28.5591 22.3902 28.5904 22.5793 28.551 22.8406Z" fill="white"/>
<path d="M34.2008 22.8167H33.2599C33.1791 22.8167 33.1104 22.8786 33.0983 22.9625L33.0566 23.2401L32.9905 23.1395C32.7867 22.8276 32.3325 22.7234 31.8788 22.7234C30.8385 22.7234 29.9502 23.5541 29.7771 24.7194C29.6874 25.3007 29.8148 25.8565 30.1275 26.2441C30.415 26.6006 30.825 26.7491 31.3134 26.7491C32.1517 26.7491 32.6165 26.1808 32.6165 26.1808L32.5745 26.4566C32.5587 26.5621 32.6358 26.6566 32.7367 26.6566H33.5844C33.7187 26.6566 33.8331 26.5536 33.8541 26.4133L34.3632 23.0162C34.3787 22.9116 34.3017 22.8167 34.2008 22.8167ZM32.8885 24.7485C32.7982 25.3155 32.3707 25.6962 31.8262 25.6962C31.5534 25.6962 31.3344 25.6038 31.1941 25.4286C31.0549 25.2546 31.0026 25.007 31.0463 24.7312C31.1317 24.169 31.5652 23.7759 32.1013 23.7759C32.3687 23.7759 32.586 23.8696 32.7292 24.0463C32.8732 24.2248 32.9301 24.4739 32.8885 24.7485Z" fill="white"/>
<path d="M35.3105 21.0452L34.5035 26.4575C34.4877 26.5623 34.5648 26.6569 34.6651 26.6569H35.4763C35.6112 26.6569 35.7256 26.5538 35.7463 26.4135L36.542 21.0989C36.5578 20.994 36.4808 20.8992 36.3805 20.8992H35.472C35.3918 20.8995 35.3228 20.9613 35.3105 21.0452Z" fill="white"/>
<path opacity="0.68" d="M28.7584 7.42382C28.9143 6.37542 28.7573 5.66222 28.2195 5.016C27.6273 4.30472 26.5576 4 25.189 4H21.2161C20.9365 4 20.6982 4.21454 20.6547 4.50594L19.0003 15.5653C18.9678 15.7835 19.1278 15.9808 19.3371 15.9808H21.7898L21.6205 17.1125C21.592 17.3034 21.7319 17.4759 21.9152 17.4759H23.9826C24.2272 17.4759 24.4355 17.2883 24.4737 17.0334L24.494 16.9225L24.8834 14.3189L24.9085 14.1751C24.9467 13.9203 25.155 13.7324 25.3996 13.7324H25.7089C27.7117 13.7324 29.2799 12.8747 29.7381 10.3939C29.9296 9.35726 29.8305 8.49198 29.3242 7.88364C29.1712 7.69999 28.9806 7.5479 28.7584 7.42382Z" fill="white"/>
<path opacity="0.7" d="M28.7584 7.42382C28.9143 6.37542 28.7573 5.66222 28.2195 5.016C27.6273 4.30472 26.5576 4 25.189 4H21.2161C20.9365 4 20.6982 4.21454 20.6547 4.50594L19.0003 15.5653C18.9678 15.7835 19.1278 15.9808 19.3371 15.9808H21.7898L22.4059 11.862L22.3867 11.9911C22.4304 11.6999 22.6664 11.4852 22.9462 11.4852H24.112C26.4014 11.4852 28.1941 10.5046 28.7177 7.66883C28.7334 7.5851 28.7465 7.5037 28.7584 7.42382Z" fill="white"/>
<path d="M23.0678 7.43768C23.094 7.26254 23.2007 7.11896 23.3444 7.04649C23.4096 7.01355 23.4826 6.99515 23.559 6.99515H26.6732C27.0422 6.99515 27.3862 7.02068 27.7006 7.07408C27.7905 7.08931 27.878 7.10688 27.963 7.12679C28.0479 7.14669 28.1304 7.16879 28.2102 7.1935C28.2502 7.20571 28.2894 7.21875 28.3281 7.2322C28.4825 7.28628 28.6263 7.34997 28.7586 7.42395C28.9146 6.37556 28.7576 5.66236 28.2197 5.01614C27.6273 4.30472 26.5576 4 25.189 4H21.2161C20.9365 4 20.6982 4.21454 20.6547 4.50594L19.0003 15.5653C18.9678 15.7835 19.1278 15.9808 19.3371 15.9808H21.7898L22.4059 11.862L23.0678 7.43768Z" fill="white"/>
</svg>
