<svg width="97" height="32" viewBox="0 0 97 32" fill="none" xmlns="http://www.w3.org/2000/svg">
<rect opacity="0.1" width="97" height="32" rx="4" fill="#2F80ED"/>
<path d="M31.6663 11.9294C31.1648 12.1447 30.6343 12.2879 30.0913 12.3544C30.6636 12.0201 31.0914 11.4908 31.2938 10.8668C30.758 11.1797 30.1718 11.4 29.5605 11.5183C29.1857 11.1242 28.6992 10.8503 28.1643 10.7321C27.6293 10.6138 27.0705 10.6567 26.5607 10.8552C26.0508 11.0536 25.6133 11.3985 25.305 11.845C24.9968 12.2914 24.832 12.8188 24.8322 13.3587C24.8322 13.572 24.8505 13.7772 24.8955 13.9724C23.8081 13.92 22.7441 13.6421 21.7733 13.1569C20.8024 12.6718 19.9464 11.9904 19.2613 11.1572C18.9104 11.7495 18.8018 12.4513 18.9579 13.1196C19.114 13.7879 19.5229 14.3725 20.1013 14.7544C19.6686 14.743 19.2451 14.6293 18.8663 14.4229V14.4524C18.8671 15.0739 19.0852 15.6762 19.4841 16.1579C19.883 16.6395 20.4382 16.9712 21.0563 17.097C20.8225 17.1577 20.5815 17.1875 20.3397 17.1856C20.166 17.1886 19.9925 17.1732 19.8222 17.1396C19.9988 17.6738 20.3392 18.141 20.7967 18.4767C21.2541 18.8125 21.806 19.0004 22.3763 19.0145C21.4088 19.7596 20.2155 20.1638 18.9872 20.1624C18.763 20.1624 18.548 20.1526 18.333 20.1255C19.5829 20.9186 21.0394 21.3381 22.5263 21.3333C27.5563 21.3333 30.3063 17.2307 30.3063 13.6746C30.3063 13.5556 30.3022 13.4407 30.2963 13.3267C30.8355 12.9468 31.2997 12.4733 31.6663 11.9294Z" fill="#2F80ED"/>
<path d="M39.3816 13.7871V12.7324H45.528V13.7871H43.0202V21H41.8894V13.7871H39.3816ZM45.3989 15.3984H46.5649L47.9653 19.3184L49.3716 15.3984H50.4263L51.8325 19.3184L53.2329 15.3984H54.3989L52.3247 21H51.4223L49.8989 16.8867L48.4223 21H47.5317L45.3989 15.3984ZM55.8108 13.8398C55.6623 13.7031 55.5881 13.5332 55.5881 13.3301C55.5881 13.127 55.6623 12.959 55.8108 12.8262C55.9592 12.6895 56.137 12.6211 56.344 12.6211C56.5549 12.6211 56.7327 12.6895 56.8772 12.8262C57.0256 12.959 57.0998 13.127 57.0998 13.3301C57.0998 13.5332 57.0256 13.7031 56.8772 13.8398C56.7327 13.9727 56.5549 14.0391 56.344 14.0391C56.137 14.0391 55.9592 13.9727 55.8108 13.8398ZM55.8049 21V15.3984H56.883V21H55.8049ZM58.3594 16.3184V15.3984H59.3672V13.2832H60.4629V15.3984H61.6465V16.3184H60.4629V21H59.3672V16.3184H58.3594ZM62.5369 16.3184V15.3984H63.5447V13.2832H64.6404V15.3984H65.824V16.3184H64.6404V21H63.5447V16.3184H62.5369ZM66.8491 18.1816C66.8491 17.3145 67.1226 16.6133 67.6695 16.0781C68.2202 15.543 68.9038 15.2754 69.7202 15.2754C70.5288 15.2754 71.1948 15.541 71.7183 16.0723C72.2417 16.6035 72.5034 17.3066 72.5034 18.1816C72.5034 18.3887 72.4995 18.5312 72.4917 18.6094H67.9448C68.0113 19.0742 68.2105 19.4453 68.5425 19.7227C68.8745 20 69.2788 20.1387 69.7554 20.1387C70.0952 20.1387 70.4097 20.0625 70.6988 19.9102C70.9878 19.7578 71.2085 19.5449 71.3609 19.2715C71.4702 19.3145 71.6382 19.3809 71.8648 19.4707C72.0913 19.5566 72.2359 19.6113 72.2984 19.6348C72.064 20.1113 71.7144 20.4785 71.2495 20.7363C70.7886 20.9902 70.2788 21.1172 69.7202 21.1172C68.9077 21.1172 68.2261 20.8457 67.6753 20.3027C67.1245 19.7598 66.8491 19.0527 66.8491 18.1816ZM67.9448 17.7598H71.4195C71.353 17.2949 71.1655 16.9297 70.857 16.6641C70.5523 16.3945 70.1734 16.2598 69.7202 16.2598C69.2515 16.2598 68.855 16.3945 68.5308 16.6641C68.2066 16.9297 68.0113 17.2949 67.9448 17.7598ZM74.1321 21V15.3984H75.222V16.6582C75.4915 15.7363 76.011 15.2754 76.7805 15.2754C76.972 15.2754 77.1595 15.2988 77.343 15.3457C77.5305 15.3887 77.6673 15.4375 77.7532 15.4922L77.5833 16.5117C77.3216 16.3828 77.0462 16.3184 76.7571 16.3184C76.4095 16.3184 76.1184 16.4375 75.8841 16.6758C75.6497 16.9141 75.4798 17.2266 75.3743 17.6133C75.2727 18 75.222 18.4492 75.222 18.9609V21H74.1321Z" fill="#2F80ED"/>
</svg>
